<svg width="61" height="46" viewBox="0 0 61 46" fill="none" xmlns="http://www.w3.org/2000/svg">
<g clip-path="url(#clip0)">
<path d="M59.1877 26.9069L59.1161 26.9296L53.5598 17.8927H51.9621L51.509 13.8385L48.0274 13.6347L47.9797 12.0039C47.9797 11.9133 47.5266 11.936 47.5266 11.8454L39.371 11.6416V7.63269H13.4973C10.5641 7.63269 8.17944 9.89758 8.17944 12.6834V37.2575V37.7784C8.17944 38.6844 8.17944 39.4998 8.37022 40.2245L9.92026 40.2019C9.9918 42.7612 12.1857 44.7996 14.8804 44.7996C17.6228 44.7996 19.8405 42.6933 19.8405 40.0886C19.8405 40.066 19.8405 40.066 19.8405 40.0433L43.1388 39.6809C43.1149 39.8395 43.0911 40.0207 43.0911 40.1792C43.0911 42.7838 45.3088 44.8902 48.0512 44.8902C50.7936 44.8902 53.0113 42.7838 53.0113 40.1792C53.0113 39.9527 52.9637 39.7262 52.9398 39.5224L58.5676 39.4318L59.1877 26.9069Z" fill="#D1D1D1"/>
<path d="M58.3292 22.8981L52.6775 14.3594C51.056 12.3663 48.2182 11.0074 45.6189 11.0074H39.8718V5.05071C39.8718 2.26489 37.4872 0 34.554 0H5.31788C2.38473 0 5.67441e-05 2.26489 5.67441e-05 5.05071V30.4175V30.9385C5.67441e-05 32.5239 -0.02379 33.9055 0.906233 34.7888C1.38317 35.2418 2.02703 35.4909 2.79013 35.4909C2.86167 35.4909 2.90936 35.4909 2.90936 35.4909C2.95705 35.5815 3.05244 35.8533 3.00475 36.7592C3.00475 36.8951 3.00475 37.031 3.00475 37.1216C3.00475 37.9823 3.29091 38.6844 3.86323 39.228C4.88864 40.1792 6.43868 40.2698 8.08411 40.2698H8.10795C8.53719 43.0783 11.3273 46 14.952 46C18.4097 46 21.3667 43.5086 21.796 40.2698H41.2072C41.6365 43.5086 44.5935 46 48.0513 46C51.509 46 54.466 43.486 54.8953 40.2698H55.6345C58.5677 40.2698 60.9524 38.0049 60.9524 35.2191V30.4402C61 28.0394 59.8316 24.7326 58.3292 22.8981ZM48.0751 35.3324C50.4598 35.3324 52.3914 37.1669 52.3914 39.4318C52.3914 41.6967 50.4598 43.5313 48.0751 43.5313C45.6904 43.5313 43.7588 41.6967 43.7588 39.4318C43.7588 37.1669 45.6904 35.3324 48.0751 35.3324ZM47.622 27.8129H57.9477C58.2338 28.7868 58.4008 29.6928 58.4008 30.4175V35.1965C58.4008 36.6233 57.1846 37.8011 55.6584 37.8011H54.7522C53.9653 34.9247 51.199 32.8636 48.0751 32.8636C44.9512 32.8636 42.1611 34.9247 41.398 37.8011H39.848V13.4761H42.3042V22.7622C42.3042 25.548 44.6889 27.8129 47.622 27.8129ZM44.8796 22.7622V13.4761H45.595C47.3359 13.4761 49.4821 14.4727 50.5552 15.7863L56.2068 24.325C56.4453 24.6194 56.6599 24.9591 56.8984 25.3895H47.5982C46.1197 25.3668 44.8796 24.2117 44.8796 22.7622ZM14.9758 43.5313C12.5911 43.5313 10.6596 41.6967 10.6596 39.4318C10.6596 37.1669 12.5911 35.3324 14.9758 35.3324C17.3605 35.3324 19.2921 37.1669 19.2921 39.4318C19.2921 41.6967 17.3605 43.5313 14.9758 43.5313ZM4.76941 33.7469C4.43555 33.4072 3.81554 32.9995 2.81397 32.9995C2.79013 32.9995 2.76628 32.9995 2.74243 32.9995C2.59935 32.7051 2.59935 31.482 2.59935 30.9385V5.05071C2.59935 3.62383 3.81554 2.44609 5.34173 2.44609H34.554C36.0563 2.44609 37.2964 3.60118 37.2964 5.05071V37.8011H21.6529C20.866 34.9247 18.0997 32.8636 14.9758 32.8636C11.8519 32.8636 9.06182 34.9247 8.27488 37.8011C7.3687 37.8011 6.03329 37.7784 5.69943 37.484C5.62789 37.416 5.60404 37.3028 5.60404 37.1216V36.8272C5.65174 35.9439 5.67558 34.6529 4.76941 33.7469Z" fill="#434343"/>
</g>
<defs>
<clipPath id="clip0">
<rect width="61" height="46" fill="white"/>
</clipPath>
</defs>
</svg>
