<svg width="50" height="51" viewBox="0 0 50 51" fill="none" xmlns="http://www.w3.org/2000/svg">
<path d="M49.2122 11.1806L25.789 0.686995C25.615 0.596622 25.435 0.518359 25.2502 0.452763H25.016C24.8143 0.419554 24.6086 0.419554 24.407 0.452763L24.0791 0.616726L0.562157 11.1806C0.390217 11.3139 0.250432 11.4842 0.153129 11.6788C0.0558272 11.8734 0.00349523 12.0874 0 12.3049V39.2182C0.00349523 39.4357 0.0558272 39.6497 0.153129 39.8443C0.250432 40.0389 0.390217 40.2092 0.562157 40.3425L24.3367 51.0001H24.8989C25.18 51.0001 25.461 51.0001 25.461 50.719L49.2356 40.0614C49.4075 39.9281 49.5473 39.7578 49.6446 39.5632C49.7419 39.3686 49.7943 39.1546 49.7977 38.9371V12.6094C49.8229 12.3416 49.7828 12.0718 49.6808 11.8229C49.5789 11.5741 49.418 11.3537 49.2122 11.1806ZM24.8989 2.74824L45.9798 12.1175L37.1258 16.0526L16.0917 6.96442L24.8989 2.74824ZM23.5169 47.8848L2.2252 38.5155V13.968L23.5169 23.5012V47.8848ZM24.8989 21.5337L3.81798 12.1644L13.4918 7.94819L34.2213 17.3175L24.8989 21.5337ZM47.5725 38.6326L25.9998 48.1658V23.5012L35.369 19.285V24.6021C35.369 24.8941 35.485 25.1741 35.6915 25.3805C35.898 25.587 36.178 25.703 36.4699 25.703C36.7619 25.703 37.0419 25.587 37.2484 25.3805C37.4548 25.1741 37.5708 24.8941 37.5708 24.6021V18.4652L47.5257 14.249L47.5725 38.6326Z" fill="#434343"/>
</svg>
