<svg width="309" height="219" viewBox="0 0 309 219" fill="none" xmlns="http://www.w3.org/2000/svg">
<path opacity="0.2" d="M20.0515 214.485H13.3871L13.9602 211.476L5.00293 215.99H11.6673L11.0942 219L20.0515 214.485Z" fill="white"/>
<path opacity="0.2" d="M61.1583 152.241H51.5964L52.4186 147.923L39.5669 154.4H49.1288L48.3065 158.719L61.1583 152.241Z" fill="white"/>
<path opacity="0.1" d="M15.5917 157.622H8.92741L9.50049 154.613L0.543213 159.127H7.20754L6.63446 162.137L15.5917 157.622Z" fill="white"/>
<path opacity="0.08" d="M34.5542 106.71H24.1231L25.0201 102L11 109.066H21.4311L20.5341 113.777L34.5542 106.71Z" fill="white"/>
<path opacity="0.2" d="M308.172 108.433H301.797L302.345 105.555L293.778 109.873H300.152L299.604 112.752L308.172 108.433Z" fill="white"/>
<path opacity="0.1" d="M49.3171 76.5595H42.6527L43.2258 73.5503L34.2686 78.0647H40.9329L40.3598 81.0746L49.3171 76.5595Z" fill="white"/>
<path opacity="0.1" d="M47.9371 184.187H38.665L39.4623 180L27 186.281H36.2721L35.4748 190.469L47.9371 184.187Z" fill="white"/>
<path opacity="0.1" d="M28.8243 21.7904H19.2624L20.0847 17.4729L7.23291 23.9501H16.7948L15.9725 28.2686L28.8243 21.7904Z" fill="white"/>
<path opacity="0.2" d="M168.826 86.3642H156.946L157.967 81L142 89.0475H153.88L152.858 94.4128L168.826 86.3642Z" fill="white"/>
<path opacity="0.2" d="M249.208 148.841H238.488L239.41 144L225 151.262H235.721L234.799 156.104L249.208 148.841Z" fill="white"/>
<path opacity="0.2" d="M277.607 59.5056H270.943L271.516 56.4965L262.559 61.0109H269.223L268.65 64.0207L277.607 59.5056Z" fill="white"/>
<path opacity="0.2" d="M287.049 138.009H280.384L280.957 135L272 139.514H278.664L278.091 142.524L287.049 138.009Z" fill="white"/>
<path opacity="0.2" d="M287.642 3.75772H280.977L281.551 0.748535L272.593 5.26296H279.258L278.685 8.2728L287.642 3.75772Z" fill="white"/>
<path opacity="0.1" d="M266.208 29.8409H255.488L256.41 25L242 32.2623H252.721L251.799 37.1042L266.208 29.8409Z" fill="white"/>
</svg>
