<svg width="50" height="39" viewBox="0 0 50 39" fill="none" xmlns="http://www.w3.org/2000/svg">
<path opacity="0.6" d="M47.5907 12.2591H45.383V7.14771H9.6223C8.47679 7.14771 7.53955 8.08271 7.53955 9.2255V36.2369H45.383V22.6481H47.5907V12.2591Z" fill="#F6D159"/>
<path d="M38.8014 19.4482C39.9261 19.4482 40.8633 18.534 40.8633 17.412C40.8633 16.29 39.9469 15.3757 38.8014 15.3757C37.6559 15.3757 36.7395 16.29 36.7395 17.412C36.7395 18.534 37.6559 19.4482 38.8014 19.4482Z" fill="#434343"/>
<path d="M47.4658 10.5137V4.69582C47.4658 2.09858 45.3622 0 42.7588 0H4.70702C2.10359 0 0 2.09858 0 4.69582V33.6395C0 36.2368 2.10359 38.3354 4.70702 38.3354H42.7588C45.3622 38.3354 47.4658 36.2368 47.4658 33.6395V24.3102H49.2152V10.5137H47.4658ZM45.0706 10.5137H35.0942L29.8041 17.8898L35.0526 24.1648L35.1359 24.2687H45.0498V33.598C45.0498 34.8862 44.0084 35.9251 42.7171 35.9251H4.66536C3.37406 35.9251 2.33269 34.8862 2.33269 33.598V4.69582C2.33269 3.40759 3.37406 2.36869 4.66536 2.36869H42.7171C44.0084 2.36869 45.0498 3.40759 45.0498 4.69582V10.5137H45.0706ZM46.8409 12.9031V21.9208H36.2814L32.8241 17.7859L36.3231 12.8823H46.8409V12.9031Z" fill="#434343"/>
</svg>
